<svg data-v-0dd9719b="" version="1.0" xmlns="http://www.w3.org/2000/svg" xmlns:xlink="http://www.w3.org/1999/xlink" width="100%" height="100%" viewBox="0 0 340.000000 250.000000" preserveAspectRatio="xMidYMid meet" color-interpolation-filters="sRGB" style="margin: auto;"> <rect data-v-0dd9719b="" x="0" y="0" width="100%" height="100%" fill="#ffffff" fill-opacity="1" class="background"></rect> <rect data-v-0dd9719b="" x="0" y="0" width="100%" height="100%" fill="url(#watermark)" fill-opacity="1" class="watermarklayer"></rect> <g data-v-0dd9719b="" fill="#000000" class="icon-text-wrapper icon-svg-group iconsvg" transform="translate(53.74500274658203,94.05302238469082)"><g class="iconsvg-imagesvg" transform="translate(0,0)"><g><rect fill="#000000" fill-opacity="0" stroke-width="2" x="0" y="0" width="60" height="61.893955023726015" class="image-rect"></rect> <svg x="0" y="0" width="60" height="61.893955023726015" filtersec="colorsb7262826469" class="image-svg-svg primary" style="overflow: visible;"><svg xmlns="http://www.w3.org/2000/svg" viewBox="-0.00011149048805236816 0.0015849918127059937 147.79364013671875 152.45913696289062"><title>资源 6</title><g id="图层_2" data-name="图层 2"><g id="图层_1-2" data-name="图层 1"><path d="M147.44,78.43A100.52,100.52,0,0,0,125,60.1a98.52,98.52,0,0,0-19-8.84,54.81,54.81,0,0,0-7.09-2.08,6.68,6.68,0,0,0-.71-.25c-1.85-.42-3.7-.87-5.56-1.24a78.84,78.84,0,0,0-10.26-1.41,56.31,56.31,0,0,0-7.22-.44,95.72,95.72,0,0,0-15,.87,66.23,66.23,0,0,0-8.7,1.61,57.46,57.46,0,0,0-8.35,2.24,5.26,5.26,0,0,1-1.59.5c-.21-.08-.31.11-.46.19a18,18,0,0,1-1.91.67A.09.09,0,0,0,39,52a.84.84,0,0,1-1.22.47h0c-.26.08-.54.14-.8.24A95.74,95.74,0,0,0,25.8,57.83a83.19,83.19,0,0,0-9.51,5.9.38.38,0,0,0-.15.05A97.83,97.83,0,0,0,.25,77.54c-.5.53-.15.76.18,1.09Q9.66,87.86,18.87,97.1c.56.56.81.5,1.31,0a70.58,70.58,0,0,1,11.21-9.93c1.87-1.34,3.85-2.51,5.76-3.78h0c.18-.08.37-.15.54-.24A71.52,71.52,0,0,1,52,76.91a84.57,84.57,0,0,1,10.53-2.44c2.3-.26,4.6-.52,6.92-.67,2.86-.19,5.72,0,8.57,0,.2,0,.39.08.59.09a73.22,73.22,0,0,1,19.56,4.18c2.61.94,5.12,2.13,7.66,3.23l1.49.82a71.43,71.43,0,0,1,20.26,16c.46.53.72.58,1.23.05,2-2,4-4,6-6C136,91,137.14,90,138.13,88.79a1.48,1.48,0,0,0,.21-.13c3.06-3.06,6.11-6.12,9.19-9.15C148,79,147.76,78.78,147.44,78.43Z" fill="#000000"></path><path d="M85.93,139.84a13.44,13.44,0,0,0-8.86-7.22,10.6,10.6,0,0,0-4.3-.48,12.1,12.1,0,0,0-6,1.67,13.17,13.17,0,0,0-5.24,4.83c-.36.53-.28.84.16,1.28,3.35,3.31,6.67,6.65,10,10,.77.76,1.53,1.52,2.29,2.29.25.26.45.38.76.05,1.71-1.77,3.55-3.42,5.19-5.26a16.63,16.63,0,0,0,2.22-2.22,20,20,0,0,0,2.7-2.74c.24-.24.46-.49.72-.71A1,1,0,0,0,85.93,139.84Z" fill="#000000"></path><path d="M77,89c-3.09,0-6.18,0-9.26.16A42.17,42.17,0,0,1,77,89Z" fill="#f33422"></path><path d="M110.11,36.57,84.8,11.25Q79.27,5.72,73.69.2c-.2-.33-.41-.19-.61,0l-5.94,6c-.37.35-.76.67-1.11,1-3.18,3.28-6.57,6.35-9.64,9.73-1.51,1.25-2.81,2.72-4.19,4.1-2.09,2.08-4.14,4.19-6.21,6.3a1.55,1.55,0,0,0-.22.12q-4.64,4.64-9.26,9.28c-.1.1-.31.2-.12.45a3.25,3.25,0,0,0,.38-.08c2.63-.87,5.29-1.68,8-2.35l5.18-1.29h0a3.82,3.82,0,0,0,.59,0c2.15-.46,4.33-.82,6.51-1.12,1.84-.26,3.69-.49,5.53-.73h0q7.47-.57,15-.41h0l4.46.23a6.83,6.83,0,0,0,2.16.19l4.14.47h0l2.69.42,6,1a2.66,2.66,0,0,0,.39.16q4.62,1,9.15,2.34c1.34.4,2.68.84,4.06,1.27C110.58,36.89,110.3,36.76,110.11,36.57Z" fill="#f33422"></path><path d="M39,52c-.21,1.19-.27,1.21-1.22.47A3,3,0,0,1,39,52Z" fill="#f33422"></path><path d="M41,51.25a3.42,3.42,0,0,1-1.91.67A5.73,5.73,0,0,1,41,51.25Z" fill="#f33422"></path><path d="M43.08,50.56a1.8,1.8,0,0,1-1.59.5A5.26,5.26,0,0,1,43.08,50.56Z" fill="#f33422"></path><path d="M117.21,109.09a43.88,43.88,0,0,0-5.36-5.46,2.85,2.85,0,0,0-1.19-1A58.39,58.39,0,0,0,93.72,92.55,4.82,4.82,0,0,1,92.4,92c-.22-.12-.5,0-.7-.17a14.27,14.27,0,0,0-3.36-1.12A47.41,47.41,0,0,0,79,89.11h0A6.28,6.28,0,0,0,77,89a68.13,68.13,0,0,0-9.26.16,5.2,5.2,0,0,1-1.66.19,17.13,17.13,0,0,0-3.35.48,21.44,21.44,0,0,0-4.33,1.08,5.24,5.24,0,0,0-1.88.45,49.36,49.36,0,0,0-9.9,4.14A15.07,15.07,0,0,0,43.84,97a50.07,50.07,0,0,0-8.8,6.6,21.34,21.34,0,0,0-3.05,3,13.59,13.59,0,0,0-1.19,1.21c-.6.51-.43.85.07,1.34q8.91,8.86,17.78,17.76l2.58,2.58c.21.21.43.46.69.1.35-.51.88-.88,1.07-1.5h0a33.9,33.9,0,0,1,3.46-3.21h0c.14-.09.3-.16.43-.26A26.9,26.9,0,0,1,73.47,119c1.14,0,2.26.13,3.39.18h0a27.17,27.17,0,0,1,18.22,10.58c1,1.34,1,1.36,2.1,0a67.58,67.58,0,0,0,4.92-5c.22-.22.43-.44.65-.65,1.68-1.54,3.32-3.11,4.84-4.8.79-.77,1.61-1.51,2.37-2.3a39.18,39.18,0,0,0,3.23-3.34L117,110C117.29,109.74,117.58,109.52,117.21,109.09Z" fill="#f33422"></path><path d="M93.72,92.55A1.53,1.53,0,0,1,92.4,92,3.49,3.49,0,0,1,93.72,92.55Z" fill="#000000"></path></g></g></svg></svg> <!----></g></g> <g transform="translate(67,14.751977920532227)"><g data-gra="path-name" fill-rule="" class="tp-name iconsvg-namesvg"><g transform="scale(1)"><g><path d="M12.2-19.26L19.75-19.26 19.89-20.47 12.73-20.47 13.18-23.85 20.38-23.85 20.61-25.47 12.73-25.47 7.74 0.36 0.27 0.36 5.76-27.99 4.37-29.61 21.11-29.61 21.2-30.24 19.75-31.95 30.24-31.95 29.88-29.61 41.13-29.61 40.55-25.47 29.2-25.47 28.98-23.85 37.8-23.85 37.17-19.26 38.74-19.26 38.3-16.11 36.72-16.11 36.09-11.65 27.27-11.65 27.13-10.71 36.23-10.71 34.7 0.32 8.69 0.32 10.21-10.71 18.54-10.71 18.68-11.65 11.47-11.65 11.97-14.98 19.13-14.98 19.3-16.11 11.74-16.11 12.2-19.26ZM17.23-2.92L27.04-2.92 27.68-7.38 17.86-7.38 17.23-2.92ZM30.96-20.47L28.48-20.47 28.35-19.26 30.78-19.26 30.96-20.47ZM27.72-14.98L30.2-14.98 30.33-16.11 27.9-16.11 27.72-14.98ZM53.59-26.01L50.71-5.49 56.7-5.49 60.16-30.29 58.68-31.99 68.94-31.99 65.25-5.49 71.23-5.49 74.11-26.01 73.35-26.86 81.9-26.86 78.21-0.36 42.3-0.36 45.77-25.15 45.05-26.01 53.59-26.01ZM108.45-31.18L109.35-27.45 111.33-30.46 110.11-31.95 118.22-31.95 114.97-26.95 116.69-26.95 119.38-31.18 124.02-31.18 121.54-26.95 123.48-26.95 122.98-23.45 112.68-23.45 111.87-22.23 123.61-22.23 123.12-18.77 121.72-18.77 121.95-17.05 122-17.05 121.95-16.96 122.44-13.23 120.73-13.23 119.75-11.12 122-11.12 121.59-7.74 119.52-1.57Q119.38-0.72 118.73-0.18 118.08 0.36 117.22 0.36L117.22 0.36 109.44 0.36 111.6-2.16 114.3-2.16 114.57-3.01 98.64-3.01 99.13-6.39 115.74-6.39 116.19-7.65 101.11-7.65 103.55-12.82 108.63-12.82 107.82-11.12 114.07-11.12 115.25-13.59 106.29-13.59 106.06-13.23 100.08-13.23 103.68-18.77 100.89-18.77 101.38-22.23 105.93-22.23 106.74-23.45 102.42-23.45 102.91-26.95 104.4-26.95 103.5-31.18 108.45-31.18ZM94.72 0.36L90.09 0.36 92.16-2.11 93.38-10.66 90.31-10.66 88.38 0.36 82.94 0.36 88.16-29.7 87.3-31.18 101.75-31.18 97.74-2.61Q97.56-1.35 96.68-0.49 95.8 0.36 94.72 0.36L94.72 0.36ZM109.62-18.77L108.54-17.05 115.97-17.05 115.74-18.77 109.62-18.77ZM91.75-18.81L91.08-14.94 93.96-14.94 94.5-18.81 91.75-18.81ZM93.19-26.91L92.52-23.09 95.13-23.09 95.67-26.91 93.19-26.91ZM143.14-11.43L143.73-15.71 146.07-19.62 143.55-19.62 144.13-23.76 148.54-23.76 149.67-25.61 155.25-25.61 154.17-23.76 164.29-23.76 163.71-19.62 151.74-19.62 149.22-15.25 151.78-15.25 152.23-18.68 157.68-18.68 157.19-15.25 162.9-15.25 162.4-11.43 156.64-11.43 156.24-8.73 162.4-8.73 161.82-4.54 155.65-4.54 154.98 0.4 148.63 0.4 149.31-4.54 142.33-4.54 142.92-8.73 149.89-8.73 150.3-11.43 143.14-11.43ZM126.94-20.07L131.71-20.07 133.16-30.24 131.71-31.95 139.72-31.95 138.01-20.07 142.88-20.07 142.29-15.84 140.22-15.84 138.73-5.26 140.17-5.26 141.84-6.66 140.94-0.54 132.34-0.54 134.5-15.84 133.78-15.84 129.82-0.04 124.06-0.04 128.02-15.84 126.36-15.84 126.94-20.07ZM159.88-24.88L160.15-26.86 149.13-26.86 148.86-24.88 144.13-24.88 144.99-31.14 165.78-31.14 164.92-24.88 159.88-24.88ZM138.51-21.38L140.53-28.8 139.54-29.92 144.45-29.92 141.97-21.38 138.51-21.38ZM131.89-29.97L131.58-21.38 128.02-21.38 128.38-29.97 131.89-29.97Z" transform="translate(-0.27000001072883606, 31.989999771118164)"></path></g> <!----> <!----> <!----> <!----> <!----> <!----> <!----></g></g> <!----></g></g><defs v-gra="od"></defs></svg>